<svg width="114" height="28" viewBox="0 0 114 28" fill="none" xmlns="http://www.w3.org/2000/svg">
<rect y="13.0198" width="32" height="1.54334" rx="0.771672" fill="#E3B873"/>
<rect x="82" y="13.0198" width="32" height="1.54334" rx="0.771672" fill="#E3B873"/>
<path d="M73.8506 8.97329L49.7301 0.0370698C49.4216 -0.0769362 49.0788 0.0808222 48.965 0.389589C48.9648 0.389839 48.9648 0.390089 48.9645 0.390339L46.2944 7.65847C46.1809 7.96724 46.3392 8.30976 46.6479 8.42326H46.6484L49.4443 9.44982L48.8283 11.1282C48.715 11.4369 48.8733 11.7789 49.1821 11.8924L54.7748 13.9458L54.3638 15.0646C53.9903 16.0667 54.3388 17.1947 55.2129 17.811V20.8512H47.1969C46.8089 19.9641 46.0149 19.3201 45.0666 19.1236V17.8725C45.0666 17.5435 44.8001 17.2767 44.4708 17.2767H42.0689C41.7399 17.2767 41.4731 17.5435 41.4731 17.8725V27.4043C41.4731 27.7335 41.7399 28.0001 42.0689 28.0001H44.4708C44.8001 28.0001 45.0666 27.7335 45.0666 27.4043V26.1535C46.0149 25.9567 46.8089 25.3129 47.1969 24.4256H55.2129V25.0214C55.2129 26.0084 56.0129 26.8087 57 26.8087C57.987 26.8087 58.7873 26.0084 58.7873 25.0214V18.4218C59.3288 18.1533 59.7471 17.6875 59.9556 17.12L60.3666 16.0012L65.3999 17.848C65.4657 17.8723 65.5349 17.8845 65.6049 17.8845C65.8547 17.8845 66.0782 17.7288 66.1645 17.4942L66.3877 16.886C68.3263 17.2507 70.1934 15.9749 70.5579 14.0366C70.6927 13.3203 70.6052 12.58 70.3072 11.915L73.9186 10.0606C74.2114 9.91059 74.3271 9.55157 74.1771 9.25881C74.1091 9.1258 73.9936 9.0233 73.8536 8.97154L73.8506 8.97329ZM56.4042 18.3538L56.8975 18.5326C57.122 18.6131 57.3575 18.6593 57.5957 18.6696V20.8512H56.4042V18.3538ZM43.8753 26.8087H42.6647V18.4683H43.8753V26.8087ZM46.2581 23.2343C46.2571 23.9913 45.7801 24.6661 45.0666 24.9196V20.3574C45.7801 20.6107 46.2571 21.2854 46.2581 22.0427V23.2343ZM47.4682 22.0427H57.5957V23.2343H47.4682V22.0427ZM57 25.6172C56.671 25.6172 56.4042 25.3504 56.4042 25.0214V24.4256H57.5957V25.0214C57.5957 25.3504 57.329 25.6172 57 25.6172ZM59.2483 15.5909L58.8373 16.7097C58.6103 17.3267 57.926 17.6433 57.3085 17.4167L56.1879 17.0062C55.5704 16.7795 55.2534 16.0949 55.4801 15.4771C55.4801 15.4771 55.4801 15.4771 55.4801 15.4769L55.8914 14.3588L58.9111 15.4674L59.2483 15.5909ZM65.2517 16.5262L50.1519 10.9814L50.5631 9.86259L59.5106 13.1483C59.7224 13.2253 59.9599 13.177 60.1246 13.023L61.7965 11.4492L66.4837 13.1708L65.2517 16.5262ZM69.2796 14.1978C68.9021 15.2156 67.8868 15.8517 66.8065 15.7469L67.727 13.2393L69.2306 12.465C69.4659 13.0155 69.4834 13.635 69.2796 14.1978ZM67.2688 12.138C67.2373 12.1407 67.206 12.1462 67.1753 12.1545L61.8637 10.2041C61.652 10.1264 61.4145 10.1746 61.2499 10.3291L59.5761 11.9032L47.6182 7.51197L49.8768 1.36214L72.167 9.62033L67.2688 12.138Z" fill="#E3B873"/>
<path d="M53.1287 7.91113L52.6033 9.33106M55.4185 8.75116L54.893 10.1711M57.6405 9.57764L57.115 10.9976" stroke="#E3B873" stroke-linecap="round"/>
</svg>
